<?xml version="1.0" encoding="UTF-8"?><svg xmlns="http://www.w3.org/2000/svg" width="50" height="50" viewBox="0 0 50 50"><defs><style>.cls-1{fill:#ee6c4d;}.cls-2{fill:#9eadc0;}.cls-3{fill:#ec6e62;}.cls-4{fill:#5a7393;}.cls-5{fill:#c5ced9;}.cls-6{fill:#3d5a80;}.cls-7{fill:#e7e3e6;}</style></defs><g id="Layer_1"><path class="cls-1" d="m46.03,38.99v.83c0,.36-.29.65-.65.65h-2.3v2.3c0,.36-.29.65-.65.65h-.83c-.36,0-.65-.29-.65-.65v-2.3h-2.3c-.36,0-.65-.29-.65-.65v-.83c0-.36.29-.65.65-.65h2.3v-2.3c0-.36.29-.65.65-.65h.83c.36,0,.65.29.65.65v2.3h2.3c.36,0,.65.29.65.65Z"/><path class="cls-3" d="m3.12,11.77c-.36,0-.65-.29-.65-.65v-.83c0-.36.29-.65.65-.65h6.73c.36,0,.65.29.65.65v.83c0,.36-.29.65-.65.65H3.12Z"/></g><g id="Layer_3"><path class="cls-2" d="m46.45,32.83h-29.7c-1.41,0-2.55-1.14-2.55-2.55V6.77c0-1.41,1.14-2.55,2.55-2.55h29.7c1.41,0,2.55,1.14,2.55,2.55v23.5c0,1.41-1.14,2.55-2.55,2.55Z"/><path class="cls-6" d="m49,9.32v-2.54c0-1.41-1.14-2.55-2.55-2.55h-29.7c-1.41,0-2.55,1.14-2.55,2.55v2.54h34.81Z"/><path class="cls-2" d="m25.84,9.79h-9.15v-1.97c0-.49.4-.89.89-.89h7.37c.49,0,.89.4.89.89v1.97h0Z"/><path class="cls-4" d="m34.99,9.32h-9.15v-1.5c0-.49.4-.89.89-.89h7.37c.49,0,.89.4.89.89v1.5Z"/><circle class="cls-7" cx="45.77" cy="6.99" r=".98"/><circle class="cls-7" cx="42.79" cy="6.99" r=".98"/><circle class="cls-7" cx="39.8" cy="6.99" r=".98"/><rect class="cls-4" x="17.3" y="11.54" width="10.02" height="17.93"/><rect class="cls-4" x="29.26" y="11.54" width="17.28" height="6.97"/><rect class="cls-4" x="29.26" y="20.4" width="17.28" height="2.04"/><rect class="cls-4" x="29.26" y="23.91" width="17.28" height="2.04"/><rect class="cls-4" x="29.26" y="27.43" width="17.28" height="2.04"/></g><g id="Layer_2"><path class="cls-5" d="m33.25,45.78H3.55c-1.41,0-2.55-1.14-2.55-2.55v-23.5c0-1.41,1.14-2.55,2.55-2.55h29.7c1.41,0,2.55,1.14,2.55,2.55v23.5c0,1.41-1.14,2.55-2.55,2.55Z"/><path class="cls-6" d="m35.81,22.26v-2.54c0-1.41-1.14-2.55-2.55-2.55H3.55c-1.41,0-2.55,1.14-2.55,2.55v2.54s34.81,0,34.81,0Z"/><path class="cls-5" d="m12.65,22.73H3.5v-1.97c0-.49.4-.89.89-.89h7.37c.49,0,.89.4.89.89v1.97Z"/><path class="cls-2" d="m21.8,22.26h-9.15v-1.5c0-.49.4-.89.89-.89h7.37c.49,0,.89.4.89.89,0,0,0,1.5,0,1.5Z"/><circle class="cls-7" cx="32.58" cy="19.94" r=".98"/><circle class="cls-7" cx="29.59" cy="19.94" r=".98"/><circle class="cls-7" cx="26.61" cy="19.94" r=".98"/><rect class="cls-2" x="4.1" y="24.49" width="10.02" height="17.93"/><rect class="cls-2" x="16.06" y="24.49" width="17.28" height="6.97"/><rect class="cls-2" x="16.06" y="33.35" width="17.28" height="2.04"/><rect class="cls-2" x="16.06" y="36.86" width="17.28" height="2.04"/><rect class="cls-2" x="16.06" y="40.38" width="17.28" height="2.04"/></g></svg>